<?xml version="1.0" encoding="UTF-8"?>
<svg width="360px" height="741px" viewBox="0 0 360 741" version="1.1" xmlns="http://www.w3.org/2000/svg" xmlns:xlink="http://www.w3.org/1999/xlink">
    <title>Background-5 Copy@2x</title>
    <defs>
        <linearGradient x1="38.1929224%" y1="0%" x2="61.8070776%" y2="98.1%" id="linearGradient-1">
            <stop stop-color="#EAA343" offset="0%"></stop>
            <stop stop-color="#EA7676" offset="100%"></stop>
        </linearGradient>
    </defs>
    <g id="Page-1" stroke="none" stroke-width="1" fill="none" fill-rule="evenodd">
        <g id="Mobile-/-Главная">
            <g id="Background-5-Copy">
                <path d="M0.0999918558,685.504694 C1.09991041,684.702835 2.12482694,682.798418 3.17474142,681.695862 C6.82709942,677.693147 2,643.5 13,639 C24,634.5 29.5,647 32.5,654.5 C39.5166228,672.041557 49.7459482,714.371637 59.2701725,728.404179 C68.2944375,741.735093 78.1936312,743.138348 87.7178555,738.226958 C100.091848,731.912314 111.965881,715.273729 124.089893,704.147928 C136.713865,692.621198 149.512822,683.800743 162.43677,679.99191 C181.46022,674.479126 201.258608,679.390515 219.357134,704.849555 C236.030776,728.303946 261.02626,678.422132 276.5,712 C305.697622,775.24667 352,692 360,654.5 L359.995679,243.178935 C359.995679,170.109486 360.010428,78.2815359 359.98543,0 L0.0147487987,0 L0,682.597954 C0.0193393708,683.573781 0.0527256354,684.544312 0.0999918558,685.504694 Z" id="Path_36" fill="url(#linearGradient-1)"></path>
                <path d="M316.280296,246.215229 C295.38727,188.931111 275.466083,127.713685 252.475008,84.1695738 C227.519707,36.9047121 199.358692,17.9690896 171.916658,14.3867016 C153.271792,12.0475717 134.615899,16.9423991 116.109867,25.8086338 C98.3348447,34.4041591 80.7109355,51.0247148 62.7584858,52.595832 C48.9384802,53.8771899 34.8190039,45.9133199 22.3996187,21.4361754 C19.1717984,14.9763231 16.0339785,7.82040957 13,0 L359.989976,0 C359.994487,14.495988 360,29.4602031 360,44.6800881 L360,340 C344.825986,316.274826 330.218836,284.370217 316.280296,246.215229 Z" id="Path_141" fill="#FFFFFF" opacity="0.027"></path>
                <path d="M316.386007,299.250601 C295.543619,241.988088 275.670714,180.793751 252.735362,137.266063 C227.840544,90.0190274 199.747782,71.0905467 172.372257,67.5095099 C153.77258,65.1712622 135.161903,70.0642434 116.700724,78.9271342 C98.9687818,87.5194176 81.387587,104.133705 63.4786479,105.704229 C49.6921373,106.985104 35.6068818,99.0242376 23.2175969,74.5563249 C14.9124911,58.1905957 7.71911599,36.0468991 0,17.0382385 L0,0 L359.9895,0 C359.9945,15.3985586 360,31.3253026 360,47.5266629 C360,53.0804605 360,58.5467283 360,63.9254663 L360,393 C344.862513,369.283774 330.290766,337.391199 316.386007,299.250601 Z" id="Path_140" fill="#FFFFFF" opacity="0.027"></path>
                <path d="M360,625 L360,655.5 C357.294575,670.37984 334.290551,724.023201 309.5,733.5 C297.63746,738.034748 284.913779,730.931002 274.5,707.5 C272.5,703 261.942017,698.06241 254.5,701.5 C242.511207,707.037821 229.647513,718.27024 219.359767,703.79397 C201.261024,678.426523 181.462398,673.413194 162.413721,678.927856 C149.514617,682.737987 136.715506,691.661713 124.091383,703.092104 C111.967224,714.121429 100.093049,730.765683 87.7189084,737.182745 C78.1945698,742.095808 68.2952573,740.692075 59.270884,727.356619 C49.7465454,713.319296 41.8720922,688.553449 31.8477883,679.028123 C26.1196275,673.602844 20.2227565,671.609318 14.3490035,673.112394 C10.5707925,674.108988 6.82718356,676.62835 3.17477953,680.632388 C2.1498507,681.735321 1.09992362,683.640386 0.099993056,684.442519 C0.0789495812,683.467113 0.0455756231,682.496621 0,681.534788 L0,641.428152 C1.57489063,640.626019 3.124783,640.02442 4.67467537,639.523087 C10.8932435,637.90824 17.1370456,640.037447 23.198389,645.839882 C33.7976529,655.966807 42.1470731,682.136387 52.2213735,697.076109 C61.7707104,711.113431 72.244983,712.61743 82.3192834,707.503834 C95.4183737,700.785973 107.992501,683.139053 120.81661,671.407862 C134.165683,659.175338 147.714742,649.850545 161.388792,645.839882 C181.537393,639.823887 202.510937,645.138016 221.659607,672.109728 C239.308381,696.975842 258.126137,652.005627 274.5,687.5 C302.223075,747.659954 329.277134,649.264515 360,625 Z" id="Path_16" fill="#FFFFFF" opacity="0.08"></path>
            </g>
        </g>
    </g>
</svg>