<?xml version="1.0" encoding="UTF-8"?>
<svg width="1441px" height="866px" viewBox="0 0 1441 866" version="1.1" xmlns="http://www.w3.org/2000/svg" xmlns:xlink="http://www.w3.org/1999/xlink">
    <title>Background-5@2x</title>
    <defs>
        <linearGradient x1="0%" y1="31.94166%" x2="100%" y2="67.3721231%" id="linearGradient-1">
            <stop stop-color="#EAA343" offset="0%"></stop>
            <stop stop-color="#EA7676" offset="100%"></stop>
        </linearGradient>
    </defs>
    <g id="Page-1" stroke="none" stroke-width="1" fill="none" fill-rule="evenodd">
        <g id="Главная" transform="translate(1.000000, 0.000000)">
            <g id="Background-" transform="translate(-1.000000, 0.000000)">
                <g id="Background-5">
                    <path d="M0.400245178,683.92519 C4.40269696,683.125179 8.50521004,681.22515 12.7077844,680.125134 C27.3273619,676.131642 42.3120206,673.618941 57.4351831,672.625022 C80.9470733,671.034348 104.564313,673.023754 127.478089,678.52511 C167.602668,688.025252 199.121976,712.72562 237.245329,726.725828 C273.367457,740.026026 312.991729,741.426047 351.115083,736.525974 C400.645423,730.22588 448.174538,713.625633 496.704266,702.525468 C547.23522,691.025296 598.466603,682.225165 650.198292,678.425108 C726.344937,672.925027 805.593483,677.8251 878.03786,703.225478 C944.778743,726.625827 1004.31521,763.126371 1066.25315,796.62687 C1183.12475,859.72781 1311.10314,886.728212 1440.9827,848.127637 L1440.9827,242.618615 C1440.9827,169.717529 1441.04174,78.1011637 1440.94168,0 L0.0590361638,0 L0,681.025147 C0.0774112036,681.998726 0.211049002,682.967021 0.400245178,683.92519 Z" id="Path_36" fill="url(#linearGradient-1)"></path>
                    <path d="M1266.37317,245.491066 C1182.92149,188.375431 1103.35156,127.338056 1011.51977,83.9220162 C911.842405,36.7961688 799.360656,17.9162393 689.750684,14.3443878 C615.278684,12.0121377 540.762641,16.8925685 466.845176,25.7327261 C395.847535,34.3029704 325.453477,50.8746421 253.747151,52.4411384 C198.546783,53.7187276 142.150258,45.7782807 92.5442982,21.3731278 C79.6516213,14.932275 67.1184271,7.79740837 55,0 L1440.95996,0 C1440.97798,14.4533528 1441,29.3735554 1441,44.5486761 L1441,339 C1380.3914,315.344606 1322.04699,283.533834 1266.37317,245.491066 Z" id="Path_141" fill="#FFFFFF" opacity="0.027"></path>
                    <path d="M1266.42288,298.489149 C1182.99543,241.372342 1103.44861,180.333716 1011.64349,136.916785 C911.995068,89.7899714 799.545984,70.9096547 689.967842,67.33773 C615.517467,65.005432 541.023063,69.8859629 467.127064,78.7263018 C396.15004,87.2967219 325.776425,103.868733 254.090921,105.435262 C198.906583,106.712877 142.526435,98.7722675 92.934881,74.3666141 C59.691388,58.042528 30.8979059,35.9551768 0,16.9948842 L0,0 L1440.95797,0 C1440.97799,15.3593765 1441,31.2455944 1441,47.4057299 C1441,52.9453957 1441,58.3977544 1441,63.7628061 L1441,392 C1380.408,368.344121 1322.08054,336.532697 1266.42288,298.489149 Z" id="Path_140" fill="#FFFFFF" opacity="0.027"></path>
                    <path d="M1441,834.38102 L1441,847.158854 C1311.01882,885.692007 1183.03889,858.738765 1066.26595,795.74804 C1004.32727,762.40588 944.790084,725.869263 878.048399,702.509786 C805.603153,677.2536 726.353656,672.262259 650.106034,677.752734 C598.473787,681.546153 547.241789,690.430741 496.710228,701.810999 C448.179918,712.791949 400.650233,729.363202 351.119297,735.752119 C312.995486,740.643633 273.370738,739.246057 237.248177,725.96909 C199.124366,711.993335 167.60468,687.336109 127.479619,677.852561 C104.551064,672.451077 80.9472003,670.466295 57.4358725,671.962778 C42.3125332,672.955001 27.3276986,675.463314 12.7079369,679.44979 C8.60537463,680.547885 4.40274981,682.444595 0.400249983,683.243209 C0.316017629,682.272082 0.182429091,681.305846 0,680.348232 L0,640.417502 C6.30393723,639.618888 12.507812,639.019927 18.7116867,638.520793 C43.6032329,636.913029 68.5957852,639.032897 92.857996,644.809882 C135.284494,654.892392 168.705368,680.947193 209.030553,695.821389 C247.254427,709.797145 289.180612,711.294547 329.505798,706.203379 C381.938546,699.514982 432.269981,681.945461 483.602042,670.265722 C537.035414,658.08685 591.269287,648.802955 646.003472,644.809882 C726.653843,638.820273 810.606277,644.111095 887.254149,670.96451 C957.898271,695.721562 1020.93764,734.254716 1086.47858,769.593412 C1197.44789,829.489506 1318.02319,858.539111 1441,834.38102 Z" id="Path_16" fill="#FFFFFF" opacity="0.08"></path>
                </g>
            </g>
        </g>
    </g>
</svg>